<!--?xml version="1.0" encoding="utf-8"?-->
<!-- Generator: Adobe Illustrator 18.1.1, SVG Export Plug-In . SVG Version: 6.00 Build 0)  -->

<svg version="1.1" id="_x32_" xmlns="http://www.w3.org/2000/svg" xmlns:xlink="http://www.w3.org/1999/xlink" x="0px" y="0px" viewBox="0 0 512 512" style="width: 48px; height: 48px; opacity: 1;" xml:space="preserve">
<style type="text/css">
	.st0{fill:#4B4B4B;}
</style>
<g>
	<path class="st0" d="M427.406,318.495c-13.594,11.316-82.283,56.679-82.283,56.679H232.176l-0.359,0.18
		c-5.958-0.206-10.598-5.188-10.427-11.137c0.223-5.942,5.222-10.607,11.129-10.402h82.865c16.71,0,30.253-13.731,30.253-30.433
		c0-16.727-13.543-30.27-30.253-30.27c-15.135,0-45.37,0-121.01,0S102.999,324.899,89.85,346.72v125.008l141.726,14.613
		c53.315,2.919,78.893,0,116.884-32.136c0,0,113.426-82.891,127.089-94.242c12.977-11.916,12.84-29.217,0.907-42.229
		C464.524,304.721,442.283,307.487,427.406,318.495z" style="fill: rgb(255, 255, 255);"></path>
	<rect y="317.229" class="st0" width="65.744" height="159.978" style="fill: rgb(255, 255, 255);"></rect>
	<path class="st0" d="M326.675,175.237c3.552,0,7.122-0.48,10.598-1.422l1.36-0.359v-14.552l-2.482,0.924
		c-3.108,1.165-6.3,1.747-9.476,1.747c-9.4,0-17.952-4.734-22.976-12.559h27.556l2.132-10.332h-33.72
		c-0.248-1.515-0.385-3.022-0.385-4.502c0-0.6,0.034-1.199,0.068-1.781h35.32l2.14-10.358h-34.652
		c4.597-9.22,14.124-15.238,24.518-15.238c3.586,0,7.139,0.719,10.555,2.175l2.072,0.864l2.799-13.697l-1.489-0.539
		c-4.477-1.644-9.168-2.482-13.936-2.482c-17.968,0-33.883,11.83-39.182,28.917h-7.798V132.4h5.958
		c-0.018,0.582-0.043,1.182-0.043,1.781c0,1.43,0.102,2.91,0.282,4.502h-6.197v10.332h8.748
		C294.547,164.758,309.76,175.237,326.675,175.237z" style="fill: rgb(255, 255, 255);"></path>
	<path class="st0" d="M193.688,206.679h251.728c3.578-14.622,15.391-25.99,30.27-28.875V90.206
		c-14.878-2.894-26.691-14.262-30.27-28.875H193.688c-3.578,14.613-15.392,25.981-30.253,28.875v87.598
		C178.296,180.689,190.11,192.058,193.688,206.679z M423.125,119.645c7.91,0,14.347,6.429,14.347,14.347
		c0,7.936-6.438,14.356-14.347,14.356c-7.944,0-14.347-6.42-14.347-14.356C408.778,126.074,415.181,119.645,423.125,119.645z
		 M319.561,73.487c33.42,0,60.506,27.095,60.506,60.506c0,33.436-27.086,60.531-60.506,60.531c-33.42,0-60.522-27.094-60.522-60.531
		C259.038,100.581,286.141,73.487,319.561,73.487z M215.98,119.645c7.944,0,14.364,6.429,14.364,14.347
		c0,7.936-6.42,14.356-14.364,14.356c-7.91,0-14.348-6.42-14.348-14.356C201.632,126.074,208.07,119.645,215.98,119.645z" style="fill: rgb(255, 255, 255);"></path>
	<path class="st0" d="M127.106,24.787v8.766v209.67H512v-14.51V24.787H127.106z M491.763,222.978H147.359V45.032h344.404V222.978z" style="fill: rgb(255, 255, 255);"></path>
</g>
</svg>
