<!--?xml version="1.0" encoding="utf-8"?-->
<!-- Generator: Adobe Illustrator 18.1.1, SVG Export Plug-In . SVG Version: 6.00 Build 0)  -->

<svg version="1.1" id="_x32_" xmlns="http://www.w3.org/2000/svg" xmlns:xlink="http://www.w3.org/1999/xlink" x="0px" y="0px" viewBox="0 0 512 512" style="width: 256px; height: 256px; opacity: 1;" xml:space="preserve">
<style type="text/css">
	.st0{fill:#4B4B4B;}
</style>
<g>
	<path class="st0" d="M437.008,74.993c-27.445-27.485-61.205-48.784-98.892-61.515c0,0,0,0-0.044,0
		c-14.127-4.821-28.754-8.396-43.884-10.628c-11.78-1.776-23.865-2.731-36.15-2.82C257.347,0,256.695,0,256,0
		c-42.884,0-83.38,10.582-118.914,29.299c-22.985,12.045-43.925,27.478-62.093,45.694C28.684,121.262,0,185.358,0,256
		c0,70.635,28.684,134.738,74.993,181.007C121.262,483.321,185.362,512,256,512c7.124,0,14.164-0.306,21.135-0.85
		c13.243-1.075,26.179-3.194,38.765-6.194c46.661-11.202,88.35-35.149,121.108-67.948C483.317,390.738,512,326.635,512,256
		C512,185.358,483.317,121.262,437.008,74.993z M306.008,44.269c-2.156-3.083-10.355-3.083-18.56-4.843
		c-7.112-1.5-10.31-3.963-7.635-7.328c9.504,1,18.851,2.529,27.967,4.671c6.974,1.649,13.87,3.634,20.563,5.911
		c0.247,0.082,0.478,0.193,0.724,0.276c-0.866,3.201-1.694,5.933-3.198,7.008c-0.537,0.425-1.153,0.575-1.926,0.515
		c-7.234-1.09-5.888,5.649-13.392,11.268c-7.548,5.656-11.821-1.657-5.623-11.268C306.817,47.537,307.008,45.619,306.008,44.269z
		 M96.761,415.239C55.989,374.426,30.795,318.262,30.795,256c0-62.179,25.153-118.306,65.851-159.12
		c0.038-0.03,0.079-0.074,0.116-0.119c8.31-8.298,17.287-15.918,26.791-22.844c-8.149,8.508-20.914,22.515-21.116,25.284
		c-0.074,0.575-0.19,1.664-0.343,3.119c-0.81,7.269-2.541,23.486-2.776,25.985c-0.306,2.963,3.702,4.314,7.008,6.433
		c2.426,1.538,0.079,13.351,0,21.71c-0.112,8.239,8.858,28.179,12.63,27.56c3.657-0.844-5.966-30.829-5.928-30.679
		c0,0,0.31-10.553,4.656-10.628c4.351-0.044,2.578,10.553,3.43,17.441c0.769,6.814,10.772,19.365,13.586,22.56
		c2.735,3.194-1.5,17.291-0.922,19.671c0.343,2.239,26.869,20.21,29.373,21.284c2.31,0.926,9.661-1.12,13.627-0.075
		c3.922,1.045,4.078,10.008,7.198,11.858c3.079,1.768,17.631,3.574,20.866,4.626c3.232,1.038,2.347,13.269,6.235,16.052
		c3.926,2.731,16.127,16.776,16.127,16.776s10.28-5.044,12.824-6.463c2.574-1.47,7.123,3.814,7.123,3.814s-0.694,21.366-1.003,25.44
		c-0.269,4.082-16.784,16.089-16.784,16.089s-2.351,21.179-2.12,29.254c0.269,8.209,15.826,28.417,15.858,28.417
		c0.045,0.045,4.504,15.359,5.896,17.747c1.538,2.619,26.672,22.91,26.754,22.91c0,0.612-3.657,39.104-4.429,45.888
		c-0.732,7.149,4.347,10.082,3.892,14.247c-0.045,0.611-0.157,1.41-0.236,2.454c-0.228,2.008-0.537,4.754-0.876,7.746
		c-5.967,0.47-12.004,0.761-18.101,0.761C193.743,481.201,137.582,456.007,96.761,415.239z M415.239,415.239
		c-14.47,14.433-30.854,26.94-48.79,37.03c-2.863,1.627-5.788,3.149-8.728,4.642c2.25-4.477,4.253-8.738,4.955-11.35
		c0.19-0.739,0.306-1.359,0.265-1.769c-0.19-4.283,10.508-12.208,16.903-14.216c6.429-2,8.388-4.351,11.544-14.007
		c3.164-9.657,5.392-25.799,5.277-32.299c0.116-6.582,14.052-24.985,14.089-31.336c0.31-6.425-2.884-11.239-7.388-15.44
		c-4.354-4.239-15.825-4.156-18.903-4.97c-2.963-0.761-4.31-7.508-9.28-8.388c-4.966-0.881-9.891,4.358-15.817,2.656
		c-5.97-1.732-2.854-7.045,1.385-9.97c4.194-2.888,0.384-14.582-3.232-21.82c-3.585-7.209-11.899-7.008-19.175-6.747
		c-7.276,0.314-8.123-9.268-14.9-19.402c-6.776-10.157-20.056-8.082-26.291-9.396c-6.197-1.306-15.206-9.344-20.787-10.62
		c-5.504-1.313-20.597,17.209-23.948,17.821c-3.347,0.582-3.732-5.194-8.545-7.202c-4.772-2-7.929,7.664-16.631,2.082
		c-8.66-5.574-0.809-23.096-0.153-32.06c0.612-8.94-7.504,1.112-17.093-2.82c-9.548-3.918-2.537-9.963,2.967-17.702
		c5.466-7.776,6.578-11.702-2.504-10.702c-9.049,1.03-10.277-3.85-11.586,2.5c-1.309,6.389-5.97,13.396-17.978,11.896
		c-11.978-1.462-12.59-12.701-11.895-21.44c0.728-8.732,3.12-8.627,9.586-19.402c6.503-10.739,11.279-10.508,17.131-13.314
		c5.888-2.859,6.35,1.12,11.238,0.612c4.888-0.493,5.082-2.851,7.008-6.627c1.884-3.732,3.925,1,17.63,2
		c13.709,1.045,9.008,2.157,9.008,2.157s-5.466,8.902,4.966,22.448c10.432,13.552,11.97-10.157,12.664-20.902
		c0.653-10.822,5.657-13.434,17.093-19.822c11.321-6.358,13.396-16.567,25.87-22.254c12.626-5.776,37.612-10.276,44.578-14.477
		c7.123-4.351-3.698-20.366,6.082-21.209c9.742-0.881,20.482,1.463,30.836-0.194c0.037,0,0.037,0,0.078,0
		c4.366-0.672,6.168-2.478,6.518-4.612c9.191,6.761,17.888,14.127,25.952,22.149c40.773,40.813,65.963,96.977,65.963,159.239
		S456.012,374.426,415.239,415.239z" style="fill: rgb(29, 155, 240);"></path>
</g>
</svg>
