<!--?xml version="1.0" encoding="utf-8"?-->
<!-- Generator: Adobe Illustrator 18.1.1, SVG Export Plug-In . SVG Version: 6.00 Build 0)  -->

<svg version="1.1" id="_x32_" xmlns="http://www.w3.org/2000/svg" xmlns:xlink="http://www.w3.org/1999/xlink" x="0px" y="0px" viewBox="0 0 512 512" style="width: 256px; height: 256px; opacity: 1;" xml:space="preserve">
<style type="text/css">
	.st0{fill:#4B4B4B;}
</style>
<g>
	<path class="st0" d="M69.308,323.488c4.104,11.431,9.35,22.332,15.544,32.694l78.97-47.225c-3.229-5.446-6.056-11.238-8.274-17.287
		L69.308,323.488z" style="fill: rgb(29, 155, 240);"></path>
	<path class="st0" d="M192.853,441.813l28.003-87.566c-18.556-5.88-34.461-16.781-46.607-30.839l-69.605,60.07
		C127.602,410.067,157.782,430.655,192.853,441.813z" style="fill: rgb(29, 155, 240);"></path>
	<path class="st0" d="M435.254,188.544c-4.104-11.43-9.35-22.331-15.536-32.629l-78.906,47.161
		c3.228,5.446,6.056,11.239,8.273,17.287L435.254,188.544z" style="fill: rgb(29, 155, 240);"></path>
	<path class="st0" d="M311.692,70.188l-27.994,87.566c18.548,5.888,34.526,16.797,46.655,30.902l69.604-60.054
		C377.007,101.942,346.756,81.41,311.692,70.188z" style="fill: rgb(29, 155, 240);"></path>
	<path class="st0" d="M284.565,261.121c2.827-17.817-9.326-34.566-27.151-37.393c-17.825-2.828-34.566,9.334-37.393,27.151
		c-2.828,17.832,9.334,34.565,27.152,37.393C264.997,291.1,281.737,278.954,284.565,261.121z" style="fill: rgb(29, 155, 240);"></path>
	<path class="st0" d="M252.378,337.851c39.594,0,74.328-28.726,80.754-69.026c0.683-4.338,1.02-8.652,1.02-12.917
		c-0.008-39.586-28.726-74.328-69.026-80.746c-4.338-0.683-8.652-1.02-12.917-1.02c-39.594,0-74.336,28.725-80.746,69.026
		c-0.691,4.329-1.028,8.651-1.028,12.917c0,39.602,28.733,74.336,69.027,80.746C243.798,337.522,248.112,337.851,252.378,337.851z
		 M190.612,256.085c0-3.213,0.257-6.467,0.779-9.752c4.796-30.356,31.047-52.012,60.817-52.012c3.213,0,6.466,0.256,9.743,0.779
		c30.364,4.796,52.022,31.047,52.022,60.809c0,3.213-0.257,6.466-0.78,9.751c-4.804,30.364-31.055,52.014-60.816,52.014
		c-3.214,0-6.467-0.249-9.744-0.772C212.269,312.106,190.612,285.854,190.612,256.085z" style="fill: rgb(29, 155, 240);"></path>
	<path class="st0" d="M218.037,471.928c-53.884-8.563-99.881-36.02-132.566-74.618c-32.662-38.598-51.836-88.233-51.836-141.017
		c0-11.391,0.892-22.926,2.731-34.549c8.563-53.885,36.02-99.881,74.618-132.567C149.58,56.508,199.216,37.341,252,37.341
		c11.39,0,22.926,0.892,34.549,2.731c53.885,8.563,99.88,36.012,132.566,74.618c32.67,38.598,51.836,88.234,51.836,141.018
		c0,11.39-0.892,22.926-2.731,34.55c-1.51,9.502-3.808,18.668-6.45,27.649h35.072c1.839-7.318,3.381-14.781,4.586-22.38
		c2.129-13.367,3.157-26.678,3.157-39.819c0-60.978-22.155-118.276-59.797-162.746c-37.626-44.486-90.916-76.264-152.97-86.105
		C278.452,4.736,265.141,3.707,252,3.707c-60.978,0-118.269,22.155-162.746,59.798C44.768,101.13,12.989,154.42,3.157,216.474
		C1.028,229.841,0,243.152,0,256.294c0,60.978,22.155,118.268,59.797,162.746c37.626,44.486,90.916,76.264,152.97,86.096
		c13.367,2.129,26.678,3.157,39.82,3.157c4.554,0,9.085-0.16,13.591-0.41v-33.835c-4.514,0.281-9.021,0.61-13.591,0.61
		C241.196,474.659,229.661,473.767,218.037,471.928z" style="fill: rgb(29, 155, 240);"></path>
	<path class="st0" d="M370.83,426.47v-0.402c8.578-4.586,15.752-13.358,15.752-28.717c0-21.737-13.559-36.1-42.276-36.1h-50.463
		c-1.197,0-1.992,0.795-1.992,1.992v131.635c0,1.198,0.795,1.992,1.992,1.992h48.47c29.714,0,46.662-12.964,46.662-39.891
		C388.976,440.431,379.208,429.659,370.83,426.47z M315.387,383.188c0-0.795,0.394-1.197,1.197-1.197h27.119
		c11.969,0,19.352,7.182,19.352,17.954c0,10.563-7.382,17.745-19.352,17.745h-27.119c-0.803,0-1.197-0.394-1.197-1.197V383.188z
		 M344.9,476.13h-28.316c-0.803,0-1.197-0.402-1.197-1.198v-35.304c0-0.795,0.394-1.198,1.197-1.198H344.9
		c13.166,0,20.549,7.583,20.549,18.749C365.448,468.546,358.066,476.13,344.9,476.13z" style="fill: rgb(29, 155, 240);"></path>
	<path class="st0" d="M508.61,391.366c-6.386-19.745-21.938-30.116-45.274-30.116h-48.47c-1.197,0-1.992,0.795-1.992,1.992v131.635
		c0,1.198,0.795,1.992,1.992,1.992h48.47c23.336,0,38.887-10.37,45.274-30.115c2.193-6.78,3.39-14.162,3.39-37.698
		C512,405.528,510.803,398.146,508.61,391.366z M485.869,458.578c-3.984,12.17-13.158,17.15-28.123,17.15h-20.139
		c-0.803,0-1.197-0.393-1.197-1.197v-90.94c0-0.804,0.394-1.198,1.197-1.198h20.139c14.965,0,24.138,4.98,28.123,17.15
		c1.398,3.791,2.394,9.768,2.394,29.513C488.262,448.608,487.266,454.786,485.869,458.578z" style="fill: rgb(29, 155, 240);"></path>
</g>
</svg>
