<!--?xml version="1.0" encoding="utf-8"?-->
<!-- Generator: Adobe Illustrator 18.1.1, SVG Export Plug-In . SVG Version: 6.00 Build 0)  -->

<svg version="1.1" id="_x32_" xmlns="http://www.w3.org/2000/svg" xmlns:xlink="http://www.w3.org/1999/xlink" x="0px" y="0px" viewBox="0 0 512 512" style="width: 128px; height: 128px; opacity: 1;" xml:space="preserve">
<style type="text/css">
	.st0{fill:#4B4B4B;}
</style>
<g>
	<path class="st0" d="M511.827,319.302c-1.651,2.486-3.402,4.953-5.32,7.364C455.808,390.172,373.073,402.938,256,402.938
		c-117.057,0-199.792-12.766-250.491-76.265c-1.918-2.418-3.669-4.886-5.337-7.372c-1.001,39.066,1.868,74.055,21.763,100.464
		C66.514,478.97,141.361,492.219,256,492.219c114.655,0,189.502-13.25,234.097-72.453
		C509.976,393.357,512.828,358.368,511.827,319.302z" style="fill: rgb(249, 249, 249);"></path>
	<path class="st0" d="M256,381.925c114.638,0,189.502-12.499,234.08-68.359c31.303-39.216,19.112-95.31,1.601-143.757
		c-18.895-52.241-32.454-86.354-71.862-114.713C380.411,26.736,316.921,19.781,256,19.781c-60.906,0-124.395,6.955-163.82,35.314
		c-39.391,28.36-52.95,62.472-71.845,114.713c-17.51,48.448-29.702,104.541,1.601,143.757
		C66.514,369.426,141.361,381.925,256,381.925z M203.417,294.228l4.002-32.062h97.161l4.019,32.062H203.417z M214.523,78.801h82.952
		l3.235,25.908h-89.423L214.523,78.801z M127.803,93.119c3.018-9.164,11.574-15.359,21.214-15.359h49.414l-5.387,43.06h125.912
		l-1.134-9.055l-4.253-34.004h49.415c9.656,0,18.211,6.195,21.23,15.359l23.598,71.762H306.449c-1.185-2.969-2.752-5.72-4.704-8.122
		c-5.137-6.329-12.291-10.623-20.179-13.459c-7.905-2.826-16.677-4.194-25.566-4.202c-11.824,0.025-23.481,2.41-33.155,7.546
		c-4.819,2.586-9.155,5.896-12.574,10.115c-1.951,2.402-3.519,5.153-4.703,8.122H104.204L127.803,93.119z M290.388,180.982
		c-2.118,2.877-6.47,5.987-12.524,8.164c-6.07,2.234-13.725,3.56-21.864,3.552c-10.84,0.025-20.83-2.394-27.367-6.021
		c-3.235-1.776-5.587-3.794-7.004-5.695H290.388z M224.73,164.881c2.686-2.502,6.472-4.761,11.141-6.421
		c5.87-2.102,12.942-3.26,20.13-3.252c9.589-0.026,18.978,2.084,25.566,5.636c2.268,1.218,4.186,2.586,5.737,4.036H224.73z
		 M71.267,265.085l27.651-84.103h105.233c0.833,3.478,2.385,6.721,4.469,9.498c4.787,6.412,11.874,10.799,19.996,13.792
		c8.172,2.977,17.528,4.52,27.384,4.527c13.158-0.024,25.416-2.718,35.122-8.012c4.853-2.661,9.089-6.021,12.274-10.307
		c2.068-2.777,3.636-6.02,4.47-9.498h105.232l27.651,84.103c2.235,6.813,1.068,14.276-3.135,20.071
		c-4.186,5.804-10.907,9.24-18.078,9.24h-94.692l-6.038-48.331H193.21l-6.037,48.331H92.481c-7.155,0-13.892-3.436-18.095-9.24
		C70.183,279.361,69.033,271.898,71.267,265.085z" style="fill: rgb(249, 249, 249);"></path>
</g>
</svg>
