<!--?xml version="1.0" encoding="utf-8"?-->
<!-- Generator: Adobe Illustrator 18.1.1, SVG Export Plug-In . SVG Version: 6.00 Build 0)  -->

<svg version="1.1" id="_x32_" xmlns="http://www.w3.org/2000/svg" xmlns:xlink="http://www.w3.org/1999/xlink" x="0px" y="0px" viewBox="0 0 512 512" style="width: 256px; height: 256px; opacity: 1;" xml:space="preserve">
<style type="text/css">
	.st0{fill:#4B4B4B;}
</style>
<g>
	<path class="st0" d="M489.518,201.801C484.932,88.594,392.72,0,279.308,0C166.021,0,73.349,89.983,69.024,202.238
		c-14.52,28.421-40.695,81.77-41.892,84.214c-6.784,13.536-7.038,29.476-0.588,43.48c6.426,13.965,18.677,24.129,33.609,27.865
		l9.585,2.404c4.65,20.986,11.64,52.621,13.83,62.674c8.252,37.974,28.198,54.175,66.695,54.175c5.332,0,10.759-0.318,16.043-0.834
		v3.285V512h32.499h190.645h32.498v-32.499v-66.719c0-21.74,6.713-42.821,17.948-56.389
		C486.161,300.559,492.461,241.623,489.518,201.801z M414.872,335.66c-18.772,22.661-25.422,52.962-25.422,77.122v66.719H198.806
		v-42.154c0,0-26.295,7.204-48.542,7.204c-22.232,0-29.833-5.094-34.942-28.596c-3.38-15.519-18.194-82.405-18.194-82.405
		l-29.079-7.276c-5.292-1.325-9.703-4.975-11.988-9.942c-2.285-4.959-2.198-10.687,0.246-15.567c0,0,31.801-64.823,45.058-90.356
		c0.016-98.258,79.676-177.91,177.944-177.91c7.425,0,14.693,0.61,21.874,1.484V173.88c-30.595,9.514-52.81,38.053-52.81,71.774
		c0,29.389,16.907,54.762,41.48,67.124c-5.134,14.671-14.354,29.992-29.524,41.759c-11.972,9.258-27.77,16.59-49.065,19.606
		c-4.364-6.023-11.402-9.974-19.408-9.974h-32.53c-13.266,0-24.018,10.752-24.018,24.034c0,13.258,10.752,24.009,24.018,24.009
		h32.53c9.665,0,17.94-5.737,21.749-13.957c14.495-1.974,27.491-5.546,38.734-10.655c25.779-11.694,42.822-30.491,53.042-49.653
		c3.204-6.014,5.712-12.028,7.743-17.939c3.404,0.468,6.863,0.801,10.402,0.801c41.504,0,75.154-33.649,75.154-75.154
		c0-35.189-24.224-64.648-56.873-72.821V43.98c65.37,24.581,112.508,86.373,115.261,159.678
		C459.963,241.362,452.624,290.102,414.872,335.66z" style="fill: rgb(185, 185, 185);"></path>
</g>
</svg>
