<!--?xml version="1.0" encoding="utf-8"?-->
<!-- Generator: Adobe Illustrator 18.1.1, SVG Export Plug-In . SVG Version: 6.00 Build 0)  -->

<svg version="1.1" id="_x32_" xmlns="http://www.w3.org/2000/svg" xmlns:xlink="http://www.w3.org/1999/xlink" x="0px" y="0px" viewBox="0 0 512 512" style="width: 256px; height: 256px; opacity: 1;" xml:space="preserve">
<style type="text/css">
	.st0{fill:#4B4B4B;}
</style>
<g>
	<path class="st0" d="M0,0v512h512V0H0z M465.975,465.975H46.025V46.025h419.95V465.975z" style="fill: rgb(29, 155, 240);"></path>
	<path class="st0" d="M75.693,385.429h360.614c3.604,0,6.912-1.978,8.619-5.15c1.708-3.163,1.537-7.019-0.449-10.022
		L332.573,200.709c-4.53-6.867-12.205-10.992-20.437-10.992c-8.224,0.018-15.899,4.152-20.419,11.036l-78.83,119.965l-43.508-49.314
		c-5.051-5.716-12.475-8.762-20.078-8.214c-7.612,0.539-14.533,4.602-18.712,10.973l-63.074,96.112
		c-1.977,3.01-2.139,6.848-0.43,10.012C68.79,383.461,72.098,385.429,75.693,385.429z" style="fill: rgb(29, 155, 240);"></path>
	<path class="st0" d="M167.589,225.793c27.404,0,49.612-22.208,49.612-49.611c0-27.403-22.208-49.612-49.612-49.612
		c-27.402,0-49.62,22.208-49.62,49.612C117.97,203.585,140.187,225.793,167.589,225.793z" style="fill: rgb(29, 155, 240);"></path>
</g>
</svg>
