<!--?xml version="1.0" encoding="utf-8"?-->
<!-- Generator: Adobe Illustrator 18.1.1, SVG Export Plug-In . SVG Version: 6.00 Build 0)  -->

<svg version="1.1" id="_x32_" xmlns="http://www.w3.org/2000/svg" xmlns:xlink="http://www.w3.org/1999/xlink" x="0px" y="0px" viewBox="0 0 512 512" style="width: 48px; height: 48px; opacity: 1;" xml:space="preserve">
<style type="text/css">
	.st0{fill:#4B4B4B;}
</style>
<g>
	<path class="st0" d="M496.583,162.408c-2.514-8.24-7.904-14.595-13.992-17.764c-6.096-3.238-12.829-3.332-18.581-0.379
		c-5.794,2.962-9.678,8.206-11.805,13.906c-2.092,5.734-2.454,11.951-0.611,17.978c3.917,11.668,6.208,23.92,6.768,36.354
		c0.568,12.442-0.569,24.979-3.444,37.136c-5.7,24.342-18.496,47.194-36.578,65.104c-18.012,17.961-41.218,30.885-66.36,36.594
		c-12.554,2.884-25.616,3.995-38.592,3.332c-12.976-0.654-25.874-3.151-38.256-7.396c-4.081-1.533-8.361-1.533-12.21-0.276
		c-3.84,1.258-7.276,3.78-9.204,7.543c-1.912,3.762-1.86,8.093,0.052,12.046c1.903,3.943,5.683,7.465,10.677,9.325
		c14.793,5.89,30.481,9.721,46.402,11.296c15.938,1.576,32.091,0.982,47.969-1.86c31.764-5.623,61.995-20.492,86.13-42.354
		c24.212-21.784,42.38-50.586,51.456-82.35c4.564-15.869,6.898-32.41,6.94-48.942C503.386,195.136,501.131,178.474,496.583,162.408z
		" style="fill: rgb(255, 255, 255);"></path>
	<path class="st0" d="M53.638,299.494c-0.576-12.45,0.569-24.979,3.436-37.136c5.7-24.334,18.504-47.194,36.568-65.104
		c18.022-17.961,41.236-30.894,66.37-36.594c12.554-2.884,25.616-3.995,38.592-3.341c12.976,0.663,25.874,3.16,38.256,7.414
		c4.09,1.516,8.361,1.516,12.218,0.267c3.849-1.257,7.276-3.78,9.196-7.551c1.912-3.754,1.86-8.094-0.052-12.047
		c-1.903-3.934-5.674-7.464-10.677-9.325c-14.784-5.881-30.472-9.712-46.41-11.288c-15.912-1.576-32.082-0.991-47.96,1.86
		c-31.763,5.622-61.994,20.484-86.13,42.354c-24.212,21.784-42.371,50.586-51.456,82.35c-4.572,15.87-6.888,32.402-6.931,48.942
		c-0.061,16.558,2.204,33.228,6.759,49.294c2.506,8.232,7.896,14.595,13.983,17.764c6.096,3.238,12.821,3.332,18.581,0.379
		c5.803-2.962,9.678-8.206,11.805-13.906c2.101-5.743,2.462-11.952,0.611-17.978C56.48,324.18,54.198,311.928,53.638,299.494z" style="fill: rgb(255, 255, 255);"></path>
	<path class="st0" d="M284.647,46.684c24.092,4.83,47.125,16.713,65.302,33.865c18.228,17.1,31.626,39.616,38.101,64.225
		c6.544,24.582,6.131,51.145-1.498,75.771c-3.772,12.313-9.342,24.178-16.412,35.088c-7.052,10.9-15.671,20.837-25.53,29.422
		c-3.367,2.781-5.502,6.484-6.346,10.454c-0.826,3.952-0.362,8.18,1.938,11.726c2.299,3.539,6.079,5.666,10.462,5.984
		c4.357,0.328,9.299-1.179,13.406-4.581c12.493-9.867,23.653-21.535,32.987-34.545c9.334-13.002,16.894-27.295,22.37-42.466
		c11.004-30.316,13.251-63.932,6.389-95.774c-6.768-31.858-22.628-61.986-45.601-85.734c-11.452-11.891-24.608-22.172-38.91-30.473
		c-14.319-8.335-29.878-14.706-46.066-18.787c-8.395-1.946-16.592-0.465-22.379,3.22c-5.855,3.668-9.299,9.437-9.626,15.903
		c-0.327,6.51,2.273,12.486,6.148,17.178C273.299,41.844,278.499,45.271,284.647,46.684z" style="fill: rgb(255, 255, 255);"></path>
	<path class="st0" d="M227.345,465.313c-24.092-4.83-47.125-16.721-65.293-33.873c-18.236-17.1-31.626-39.608-38.109-64.217
		c-6.544-24.582-6.13-51.154,1.498-75.78c3.78-12.296,9.342-24.169,16.402-35.079c7.061-10.909,15.672-20.846,25.539-29.43
		c3.367-2.781,5.502-6.475,6.346-10.445c0.826-3.96,0.362-8.188-1.938-11.736c-2.29-3.539-6.078-5.657-10.462-5.984
		c-4.356-0.319-9.29,1.188-13.406,4.589c-12.494,9.867-23.652,21.535-32.986,34.536c-9.325,13.011-16.893,27.295-22.37,42.476
		c-11.012,30.316-13.26,63.924-6.389,95.765c6.759,31.858,22.619,61.986,45.592,85.742c11.452,11.883,24.617,22.163,38.919,30.472
		c14.32,8.326,29.878,14.706,46.066,18.796c8.386,1.937,16.584,0.456,22.378-3.229c5.846-3.668,9.29-9.437,9.626-15.912
		c0.327-6.501-2.273-12.476-6.139-17.17C238.685,470.144,233.501,466.725,227.345,465.313z" style="fill: rgb(255, 255, 255);"></path>
	<path class="st0" d="M55.222,131.729c5.46,3.53,11.943,4.27,17.945,3.254c6.018-1.042,11.581-3.84,15.886-8.456
		c8.146-9.231,17.6-17.342,28.088-24.032c10.496-6.725,21.913-11.994,33.89-15.593c23.928-7.225,50.113-7.578,74.661-0.878
		c24.566,6.621,47.366,20.26,64.879,39.177c8.774,9.437,16.265,20.183,22.189,31.756c5.907,11.564,10.203,23.989,12.709,36.826
		c0.724,4.305,2.859,8.008,5.872,10.721c3.005,2.694,6.914,4.408,11.133,4.184c4.211-0.215,7.948-2.428,10.41-6.062
		c2.463-3.608,3.625-8.645,2.738-13.906c-2.299-15.748-6.82-31.247-13.424-45.833c-6.604-14.586-15.189-28.285-25.59-40.616
		c-20.76-24.686-48.735-43.439-79.75-53.419c-30.972-10.066-64.992-11.391-97.048-3.375c-16.015,3.969-31.506,10.23-45.842,18.461
		c-14.38,8.24-27.683,18.529-39.324,30.498c-5.872,6.302-8.68,14.138-8.387,21C46.509,122.334,49.789,128.207,55.222,131.729z" style="fill: rgb(255, 255, 255);"></path>
	<path class="st0" d="M456.761,380.268c-5.459-3.53-11.934-4.27-17.935-3.254c-6.02,1.05-11.581,3.84-15.878,8.456
		c-16.23,18.444-38.049,32.444-61.986,39.616c-23.928,7.234-50.113,7.577-74.661,0.887c-24.574-6.62-47.375-20.268-64.88-39.186
		c-8.774-9.428-16.265-20.183-22.189-31.747c-5.907-11.564-10.203-23.988-12.709-36.835c-0.723-4.306-2.858-7.999-5.881-10.712
		c-3.005-2.694-6.906-4.408-11.134-4.193c-4.201,0.216-7.938,2.437-10.4,6.07c-2.472,3.608-3.626,8.645-2.739,13.898
		c2.308,15.757,6.819,31.256,13.424,45.842c6.595,14.577,15.188,28.285,25.59,40.607c20.751,24.695,48.735,43.439,79.75,53.419
		c30.963,10.074,64.992,11.4,97.04,3.384c32.056-7.956,61.848-24.971,85.174-48.959c5.872-6.303,8.679-14.138,8.386-21.001
		C465.474,389.663,462.211,383.79,456.761,380.268z" style="fill: rgb(255, 255, 255);"></path>
</g>
</svg>
